<?xml version="1.0" encoding="utf-8"?>
<!-- Generator: Adobe Illustrator 21.0.0, SVG Export Plug-In . SVG Version: 6.00 Build 0)  -->
<svg version="1.1" id="Layer_1" xmlns="http://www.w3.org/2000/svg" xmlns:xlink="http://www.w3.org/1999/xlink" x="0px" y="0px"
	 viewBox="0 0 42 1806" style="enable-background:new 0 0 42 1806;" xml:space="preserve">
<style type="text/css">
	.st0{fill:#FFFFFF;}
	.st1{fill:#4285F4;}
	.st2{fill:#34A853;}
</style>
<title>social-icon-sprite -colours</title>
<desc>Created with Sketch.</desc>
<path class="st0" d="M31.5,102.6H20.9v4.4H27c-0.3,1.4-1.1,2.6-2.2,3.4l0,0c-1,0.7-2.3,1.1-3.8,1.1c-2.9,0-5.4-2-6.3-4.6
	c-0.2-0.7-0.4-1.4-0.4-2.1s0.1-1.5,0.4-2.1c0.9-2.7,3.4-4.6,6.3-4.6c1.7,0,3.1,0.6,4.3,1.7l3.2-3.2c-2-1.8-4.5-2.9-7.5-2.9
	c-4.4,0-8.2,2.5-10,6.2c-0.8,1.5-1.2,3.2-1.2,5.1s0.4,3.5,1.2,5.1c1.8,3.7,5.6,6.2,10,6.2c3,0,5.6-1,7.4-2.7l0,0l0,0
	c2.1-2,3.4-4.8,3.4-8.3C31.7,104.1,31.6,103.3,31.5,102.6z"/>
<path id="Facebook" class="st0" d="M22.9,76V64h3.8v-4.4h-3.8v-3.2c0-0.7,0.7-1.9,2-1.9h2.4v-4.4h-3.8c-3.5,0-5.7,2.4-5.7,6.3v3.2
	H14V64h3.8v12H22.9"/>
<path id="linkedin" class="st0" d="M9.3,142h4.9v17H9.3V142z M12,134c1.6,0,3,1.3,3,3s-1.3,3-3,3s-3-1.3-3-3S10.3,134,12,134z
	 M17.7,142h4.9v2.8l0.1-0.3c0.7-1.3,2.3-3.3,4.8-3.3c5.2,0,6.4,4,6.4,8.5v9.2H29v-8.5c0-1.9,0-4.3-2.8-4.3c-2.9,0-3.5,1.6-3.5,4.3
	v8.5l-4.9-0.1L17.7,142L17.7,142z"/>
<path id="twitter" class="st0" d="M36.5,180.8c-1.1,0.5-2.2,0.8-3.4,1c1.2-0.7,2.2-1.9,2.6-3.3c-1.1,0.7-2.4,1.2-3.7,1.5
	c-1.1-1.2-2.6-1.9-4.3-1.9c-3.3,0-5.9,2.7-5.9,6.1c0,0.5,0.1,0.9,0.1,1.4c-4.9-0.2-9.2-2.7-12.1-6.3c-0.6,0.7-1.2,1.8-1.2,2.9
	c0,2.1,1.6,4.5,3.2,5.5c-1,0-2.4-0.9-3.2-1.3v0.1c0,2.9,2.4,5.6,5.1,6.2c-0.5,0.1-1,0.2-1.6,0.2c-0.4,0-0.7,0-1.1-0.1
	c0.7,2.4,2.9,4.2,5.5,4.2c-2,1.6-4.6,2.6-7.3,2.6c-0.5,0-0.8-0.1-1.2-0.1c2.6,1.7,5.7,2.5,9,2.5c10.8,0,16.1-8.6,16.1-16.6v-0.8
	C34.3,183.4,35.7,182,36.5,180.8"/>
<path id="yahoo" class="st0" d="M8,220.3c0,0,1.5,0.2,2.7,0l5.9,9.6l5.9-9.6c0,0,1.3,0.2,2.9,0l-7.5,12.4l0.2,9.3c0,0-1.3-0.2-2.7,0
	v-9.4L8,220.3z M32.8,220c1.9,0.2,1,2.3,0.7,3.8c-0.3,1.6-2.9,13.1-2.9,13.1s-0.5-0.3-0.9-0.1c0,0,1.1-12.7,1.4-14.9
	C31.4,219.9,32.1,220,32.8,220z M31,240.3c0,0.8-0.6,1.4-1.4,1.4s-1.4-0.6-1.4-1.4s0.6-1.4,1.4-1.4C30.4,238.9,31,239.5,31,240.3z"
	/>
<path id="amazon" class="st0" d="M24.1,278.8c-0.4,0.3-0.8,0.7-1.2,1.1c-1.5,1.2-3.3,1.6-5.2,1.4c-2.9-0.3-4.6-2.3-4.7-5.2
	c-0.1-3.3,1.6-5.5,4.9-6.4c1.6-0.5,3.2-0.6,4.9-0.8h0.5c0,0,0.1,0,0.2-0.1c0-0.7,0-1.5-0.2-2.2c-0.1-0.9-0.9-1.5-1.8-1.7
	c-1.5-0.2-3,0.6-3.4,2.1c-0.1,0.5-0.4,0.7-0.9,0.6c-1-0.1-1.9-0.2-2.9-0.4c-0.7-0.1-0.8-0.3-0.7-1c0.5-2,1.6-3.5,3.5-4.3
	c2.8-1.2,5.6-1.3,8.4,0c1.8,0.8,2.8,2.3,2.9,4.2c0.1,2.6,0.1,5.1,0.1,7.7c0,1.3,0.1,2.6,1.3,3.8c0.4,0.4,0.3,0.8-0.1,1.2
	c-0.8,0.7-1.6,1.4-2.4,2.1c-0.4,0.4-0.8,0.4-1.2,0C25.4,280.2,24.8,279.5,24.1,278.8L24.1,278.8z M23.5,271.6
	c-0.8,0.1-1.7,0.1-2.4,0.3c-2,0.4-3,1.7-2.8,3.7c0.1,1.5,1.1,2.4,2.5,2.2c0.9-0.1,1.5-0.3,2-1C23.7,275.3,23.5,273.3,23.5,271.6z
	 M21.4,287c-3.7,0-6.5-0.7-9.1-2.5c-1.4-0.9-2.7-2-4-3.1c-0.4-0.3-0.4-0.7-0.2-1c0.2-0.3,0.6-0.4,1-0.1c1.3,0.7,2.6,1.4,4,2.1
	c2.1,1,4.3,1.8,6.7,2c1.9,0.2,3.8,0,5.7-0.4c2-0.4,3.9-1,5.8-1.8c0.1-0.1,0.3-0.1,0.4-0.2c0.4-0.1,0.9,0,1,0.4
	c0.2,0.4,0.1,0.8-0.3,1.1c-0.5,0.4-1,0.7-1.6,1C27.8,286.3,24.4,286.9,21.4,287z M32.8,281c-0.6,0.1-1.3,0.2-1.9,0.2
	c-0.3,0-0.6,0-0.8-0.3c-0.2-0.3,0-0.6,0.3-0.8c1.2-0.9,2.6-1.1,4.1-0.9c1.4,0.1,1.6,0.4,1.5,1.8s-0.6,2.6-1.6,3.6
	c-0.1,0.1-0.3,0.3-0.4,0.3c-0.2,0-0.5,0-0.7-0.1c-0.1-0.1-0.2-0.4-0.1-0.6c0.2-0.6,0.4-1.2,0.6-1.8c0.1-0.3,0.1-0.6,0.2-0.9
	s-0.1-0.4-0.4-0.4C33.3,281.1,33.1,281.1,32.8,281L32.8,281z"/>
<path id="AOL" class="st0" d="M17.2,321.6H17h-3.2c-0.2,0-0.3-0.1-0.3-0.3c-0.1-0.5-0.3-0.9-0.4-1.4c-0.1-0.2-0.1-0.3-0.3-0.3H8.7
	c-0.2,0-0.3,0.1-0.3,0.2c-0.1,0.5-0.3,1-0.5,1.5c0,0.1-0.1,0.2-0.2,0.2H4.3H4.2c0.2-0.5,0.4-1,0.6-1.6c1.5-3.9,3-7.8,4.6-11.7
	c0.1-0.3,0.2-0.3,0.5-0.3h2.2c0.2,0,0.3,0,0.3,0.2c1.7,4.4,3.4,8.8,5.1,13.2C17.2,321.5,17.2,321.5,17.2,321.6L17.2,321.6z
	 M10.7,312.4L10.7,312.4c-0.5,1.5-0.9,3.1-1.4,4.4H12C11.6,315.5,11.1,313.9,10.7,312.4z M22.7,322c-3,0-5.3-2.4-5.3-5.5
	s2.4-5.5,5.4-5.4c3,0,5.3,2.4,5.3,5.5S25.7,322,22.7,322z M25.1,316.5c0-1.4-1.1-2.6-2.4-2.6s-2.4,1.2-2.4,2.6s1.1,2.6,2.4,2.6
	S25.1,318,25.1,316.5z M32.9,321.7h-3.3V308h3.3V321.7z M38,320.1c0,1.1-0.8,1.6-1.9,1.6c-1,0-1.9-0.5-1.9-1.6s0.9-1.8,2-1.8
	C37.3,318.3,38,319,38,320.1z"/>
<path id="Disqus" class="st0" d="M21.7,371.7c-3.4,0-6.5-1.2-8.8-3.3L7,369.2l2.3-5.6c-0.8-1.7-1.2-3.7-1.2-5.7
	c0-7.6,6.1-13.8,13.7-13.8s13.7,6.2,13.7,13.8C35.4,365.5,29.3,371.7,21.7,371.7L21.7,371.7z M29.2,357.8L29.2,357.8
	c0-4-2.8-6.9-7.6-6.9h-5.2v13.8h5.1C26.3,364.7,29.2,361.8,29.2,357.8L29.2,357.8z M21.6,361.3h-1.5v-7h1.5c2.2,0,3.7,1.3,3.7,3.5
	l0,0C25.3,360.1,23.8,361.3,21.6,361.3L21.6,361.3z"/>
<path id="Foursquare" class="st0" d="M28.6,390l-0.6,3.2c-0.1,0.4-0.5,0.7-0.9,0.7h-5.4c-0.6,0-1,0.4-1,1.1v0.7
	c0,0.6,0.4,1.1,1.1,1.1h4.6c0.4,0,0.9,0.5,0.8,1s-0.5,2.9-0.6,3.2s-0.3,0.7-0.9,0.7h-3.8c-0.7,0-0.9,0.1-1.4,0.7s-4.6,5.9-4.6,5.9
	c0,0.1-0.1,0-0.1,0V390c0-0.4,0.3-0.9,0.8-0.9h11.2C28.3,389.1,28.7,389.5,28.6,390L28.6,390z M29.1,402.7
	c0.2-0.7,1.9-10.2,2.5-13.2L29.1,402.7z M29.4,386h-14c-1.9,0-2.5,1.5-2.5,2.5v23.6c0,1.1,0.6,1.5,0.9,1.6c0.3,0.1,1.2,0.2,1.7-0.4
	c0,0,6.6-8.1,6.7-8.2c0.2-0.2,0.2-0.2,0.3-0.2h4.3c1.8,0,2.1-1.4,2.3-2.2c0.2-0.7,1.9-10.2,2.5-13.2C32,387.2,31.5,386,29.4,386
	L29.4,386z"/>
<path id="Github" class="st0" d="M21,428c-7.3,0-13,5.6-13,12.8c0,5.8,3.6,11.1,8.8,12.8c0.7,0.1,0.9-0.3,0.9-0.6v-2.2
	c-3.7,0.8-4.4-1.8-4.4-1.8c-0.6-1.5-1.5-1.9-1.5-1.9c-1.2-0.8,0.1-0.8,0.1-0.8c1.3,0.1,2,1.4,2,1.4c1.2,2,3.1,1.4,3.8,1.1
	c0.1-0.9,0.5-1.4,0.8-1.8c-2.9-0.3-6-1.5-6-6.5c0-1.4,0.5-2.6,1.4-3.5c-0.1-0.3-0.6-1.7,0.1-3.5c0,0,1.1-0.4,3.6,1.3
	c1.1-0.3,2.2-0.4,3.3-0.4s2.2,0.2,3.3,0.4c2.5-1.7,3.6-1.3,3.6-1.3c0.7,1.8,0.3,3.2,0.1,3.5c0.8,0.9,1.4,2.1,1.4,3.5
	c0,5.1-3.1,6.2-6,6.5c0.5,0.4,1,0.8,1,2.1v4.1c0,0.4,0.1,0.6,0.7,0.5c5.2-1.7,8.8-7,8.8-12.8C34,433.6,28.3,428,21,428"/>
<path id="Hyves" class="st0" d="M30,492.8v-19.5c0,0,2.1-0.8,2.1-2s-0.9-2.7-3.9-2.2c-3,0.4-5.3,1.7-5.1,2.8c0.1,0.8,1,1.6,2.9,2.1
	v9.4c-6.1,0.5-9.1,1.6-10,2v-10.1c0,0,2.5-0.6,2.5-2.3s-2.7-3.1-5.2-2.4c-2.5,0.6-4.5,1.6-4.3,3.5c0.1,1.4,2.4,1.9,3,1.9v18.9
	c0,0-1.5,0.7-2,2s0.8,2.1,2.7,2.1c1.9,0.1,6.1-1,5.7-2.6s-2.5-1.5-2.5-1.5v-5.4c2.9-2.3,7.8-2.7,10-2.7v6.1c0,0-1.1,0.4-1.8,1.6
	c-0.7,1.2,0.9,2.6,3.8,2.4c3-0.2,4.5-1.5,4.4-2.2C32.3,494,31.5,492.8,30,492.8"/>
<path id="Kaixin" class="st0" d="M15.9,559.6c0,0,1.7-2.2,4-3.9s5.9-3,6.4,0.5c0.5,3.6,0.9,6.3,1.2,6.7c0.3,0.4,1.8,1,4.3,1.2
	s4.8,0.7,4.3,2.7c-0.4,2-1.2,5.4-6.8,6.5c0,0,0.4,5.4-0.1,6.7s-1.6,2.9-5.5,0.9c-3.9-2.1-5-3.7-5-3.7s-3.8,3.8-5.6,3.4
	c-1.8-0.4-3.3-2.8-3.3-6.6c0-4,1.1-5.2,1.1-5.2s-2.5-2.6-2.8-6.8s0.9-4.8,2.6-4.3C12.4,558.1,15.9,559.6,15.9,559.6"/>
<path id="Live" class="st0" d="M18.1,609.3H8v-8.8l10.1-1.5V609.3z M34,609.3H19.6V599l14.4-3V609.3z M18.1,621.1L8,619.6v-8.8h10.1
	V621.1z M20.3,621.4c-0.3,0-0.8-0.1-0.8-0.1v-10.5H34V624C34,624,24.9,622.3,20.3,621.4z"/>
<path id="LiveJournal" class="st0" d="M31.8,666.1c-0.2-0.1-0.4-0.1-0.5-0.2c-3.6-1.5-7.1-3.1-10.7-4.6c-0.2-0.1-0.5-0.3-0.7-0.5
	c-3.8-5.2-7.6-10.4-11.4-15.6c-0.6-0.8-0.5-1.7-0.3-2.6c0.6-2,2-3.4,3.8-4.4c1.2-0.7,2.5-1.2,4-1.2c1.1,0,2,0.4,2.7,1.4
	c3.6,5,7.7,10.2,11.3,15.1c0.4,0.6,0.1,0.9,0.2,1.6c0.5,3.4,1,6.8,1.5,10.2C31.7,665.5,31.7,665.8,31.8,666.1L31.8,666.1z
	 M27.7,653.8c-0.1-0.2-0.2-0.3-0.3-0.4c-2.2-3-4.4-6-6.6-8.9c-0.8-1.1-0.8-1.1-2.1-0.7c-0.9,0.3-1.7,0.7-2.4,1.3
	c0.1,0.1,0.1,0.2,0.1,0.2c2.1,2.8,4.2,5.6,6.3,8.4c0.1,0.1,0.2,0.2,0.3,0.3C24.6,654.6,26.1,654.5,27.7,653.8L27.7,653.8z
	 M21.3,659.1h0.2c0.3-0.8,0.6-1.6,0.8-2.4c0.1-0.8,0.2-1.7-0.4-2.5c-2-2.7-4-5.4-6.1-8.1c-0.1-0.1-0.2-0.2-0.3-0.4
	c-0.8,0.7-1.4,1.5-1.9,2.4c-0.2,0.3-0.1,0.6,0.1,0.9c1.9,2.5,3.8,5,5.6,7.4C20,657.4,20.6,658.3,21.3,659.1L21.3,659.1z M29.3,661.3
	c-0.3-2.1-0.6-4.4-1-6.7c-1.6,0.8-3.3,0.9-4.9,0.7c-0.1,0.8-0.2,1.6-0.4,2.4s-0.6,1.5-0.9,2.2c1.8,0.8,3.7,1.7,5.5,2.6
	c0.1,0,0.3,0,0.4-0.1C28.4,662,28.8,661.7,29.3,661.3L29.3,661.3z M19,642.1c-0.4-0.5-0.7-1-1-1.5c-0.2-0.3-0.4-0.4-0.7-0.2
	c-0.9,0.4-1.9,0.7-2.7,1.1c-1.5,0.8-2.6,2-3.3,3.6c-0.1,0.2-0.1,0.4-0.1,0.5c0.3,0.5,0.7,1,1.1,1.6C13.8,644.5,16,642.8,19,642.1
	L19,642.1z M10,643.9c1.5-2.4,3.6-4.1,6.3-4.9C13.7,638.3,9.4,641.6,10,643.9L10,643.9z"/>
<path id="mixi" class="st0" d="M32.7,682.8c-2.9-2.7-6.5-3.8-10.5-3.8c-0.8,0-1.6,0-2.4,0.1c-5.3,0.8-9.5,3.3-12.2,8
	c-1.6,2.8-2.2,5.9-1.2,9c1.3,4,4.3,6.3,8.2,7.6c2.3,0.8,4.6,1,7,0.8c0.6-0.1,0.8,0.1,0.7,0.7v1.6c0,0.5,0.1,0.6,0.6,0.4
	c1.4-0.6,2.8-1.1,4.2-1.9c3.4-1.9,6.2-4.3,8-7.7C37.9,692.5,37,686.7,32.7,682.8L32.7,682.8z M29,697.7c-1.5,0-1.3,0.2-1.3-1.3v-4.9
	V691c0-1.5-0.4-2.2-1.5-2.5c-1.2-0.3-2.5,0.2-3.2,1.2c-0.4,0.7-0.7,1.4-0.7,2.2v5.1c0,0.6-0.1,0.8-0.8,0.8c-1.4-0.1-1.2,0.1-1.3-1.3
	v-4.9V691c0-1.4-0.4-2.2-1.3-2.5c-1.2-0.4-2.5,0.1-3.3,1.1c-0.5,0.7-0.7,1.6-0.7,2.4v5c0,0.5-0.2,0.7-0.7,0.7
	c-1.5,0-1.3,0.2-1.3-1.3v-8.8c0-0.8,0-0.8,0.9-0.8c1.3,0,1.1,0,1.1,1.1v0.6c0.3-0.3,0.5-0.6,0.8-0.8c1.6-1.6,4.8-1.6,6,0.6
	c0.2,0.4,0.3,0.3,0.5,0c1-1.1,2.2-1.7,3.8-1.7c2,0,3.3,1.1,3.5,3c0.1,0.5,0.1,1.1,0.1,1.7v5.7C29.7,697.5,29.6,697.7,29,697.7
	L29,697.7z"/>
<path id="Odnoklassnikki" class="st0" d="M19.3,742.5c-1.5,0.1-3,0.1-4.4-0.3c-1.3-0.3-2-1.3-1.9-2.5c0.2-1.2,1-1.9,2.3-1.7
	c1.5,0.2,3.2,0.1,4.7-0.2c2-0.5,3.8-1.6,5.1-3.2c0.4-0.5,0.9-1,1.6-1.1c0.9-0.1,1.8,0.3,2.3,1.1c0.5,0.9,0.4,1.7-0.2,2.5
	c-0.9,1.2-2.1,2.2-3.5,3.2c1.8,0.8,3.5,1.6,5.2,2.4c0.7,0.3,1.3,0.8,1.5,1.7s0,1.6-0.7,2.2c-0.7,0.6-1.6,0.7-2.4,0.3
	c-1.5-0.7-3-1.4-4.5-2.1c-0.6-0.3-0.9-0.3-1.1,0.4c-0.6,1.5-1.3,2.9-2,4.4c-0.6,1.3-1.9,1.9-3,1.3c-1.2-0.6-1.7-1.8-1-3.2
	s1.3-2.9,2-4.3C19.2,743.1,19.4,742.8,19.3,742.5z M17.4,736c-4.2,0-7.4-2.9-7.4-7.2c0-4.1,3-7.8,7.2-7.8s7.8,3.2,7.8,7.5
	C25,732.7,21.6,736,17.4,736z M17.4,731.5c1.8,0,3.1-1.4,3.1-3.1c0-1.8-1.4-3.2-3.2-3.1c-1.7,0-3.1,1.4-3.1,3.2
	C14.3,730.2,15.7,731.5,17.4,731.5L17.4,731.5z"/>
<path id="orange" class="st0" d="M5.7,780c-1.4,0-2.7-1-2.7-3s1.3-3,2.7-3s2.7,0.9,2.7,3C8.5,779,7.2,780,5.7,780L5.7,780z
	 M5.7,775.3c-1.1,0-1.3,1-1.3,1.7s0.2,1.7,1.3,1.7s1.3-1,1.3-1.7S6.8,775.3,5.7,775.3z M9.5,774.1h1.4v0.7c0.3-0.4,0.9-0.8,1.5-0.8
	h0.2v1.4h-0.1c-0.6,0-1.3,0.1-1.5,0.6v3.8H9.5V774.1z M16.4,779.3c-0.6,0.4-1.2,0.6-1.8,0.6c-1,0-1.6-0.7-1.6-1.6
	c0-1.3,1.1-1.9,3.5-2.2v-0.3c0-0.4-0.3-0.7-0.9-0.7s-1,0.2-1.3,0.7l-1-0.6c0.5-0.7,1.3-1.1,2.3-1.1c1.4,0,2.2,0.6,2.2,1.7v4.1h-1.3
	L16.4,779.3z M14.4,778.1c0,0.4,0.2,0.7,0.7,0.7s0.9-0.2,1.3-0.6v-1.3C15,777.1,14.4,777.4,14.4,778.1z M19,774.3l1.2-0.2l0.1,0.7
	c0.7-0.5,1.2-0.8,1.9-0.8c1.1,0,1.7,0.6,1.7,1.8v3.9h-1.5V776c0-0.7-0.2-1-0.7-1c-0.4,0-0.9,0.2-1.4,0.6v4.1H19V774.3z M27.5,778.6
	c1.1,0,1.2-1.2,1.2-1.9c0-0.9-0.4-1.6-1.2-1.6c-0.5,0-1.1,0.4-1.1,1.7C26.4,777.4,26.4,778.6,27.5,778.6z M30.1,774.1v5.4
	c0,0.9-0.1,2.5-2.7,2.5c-1.1,0-2.1-0.4-2.3-1.4l1.4-0.2c0.1,0.3,0.2,0.6,1,0.6s1.1-0.4,1.1-1.3V779l0,0c-0.2,0.4-0.6,0.8-1.4,0.8
	c-1.3,0-2.3-0.9-2.3-2.8s1-3,2.2-3c1.1,0,1.5,0.5,1.6,0.8l0,0l0.1-0.7H30.1L30.1,774.1z M33.5,779.9c-1.6,0-2.6-1.1-2.6-2.9
	c0-1.9,1-3,2.6-3c1.6,0,2.5,1,2.5,2.9v0.3h-3.7c0,1.1,0.4,1.6,1.3,1.6c0.5,0,0.9-0.2,1.3-0.7l1.1,0.6
	C35.5,779.5,34.7,779.9,33.5,779.9z M34.6,776.2c0-0.8-0.4-1.2-1.1-1.2s-1.1,0.4-1.1,1.2H34.6z M38.5,772l-0.5,1.4l-0.5-1.4H37v1.9
	h0.3v-1.6l0,0l0.6,1.6h0.2l0.6-1.6l0,0v1.6H39V772H38.5z M35.2,772v0.2h0.6v1.6h0.3v-1.6h0.6V772H35.2L35.2,772z"/>
<path id="OpenID" class="st0" d="M30.5,818.1l-2.8,1.7L36,821v-6.3l-2.4,1.4c-2.1-1.4-4.8-2.3-7.7-2.7v2.9
	C27.6,816.7,29.2,817.3,30.5,818.1z M20.5,807.1V833l4.8-1.9L25.1,805L20.5,807.1z M19.9,816.3v-2.9C13,814.3,8,818.1,8,822.9
	c0,5,4.2,10,11.4,10V830c-4.9-0.7-7.2-3.1-7.2-7.1C12.2,819.7,15.4,817.2,19.9,816.3z"/>
<path id="Paypal" class="st0" d="M24.9,847H14.5c-0.7,0-1.4,0.4-1.6,1.3C8,868.9,8,869.5,8,869.5c-0.2,0.7,0.2,1.3,0.9,1.3h3.7
	c0.3,0,0.5-0.1,0.7-0.2c0.7-3.1,1.9-8.1,3.8-16.3c0.2-0.9,0.9-1.2,1.6-1.2h10.4c1,0,1.8,0.1,2.5,0.3c0-1.2-0.1-2.4-0.5-3.2
	C30.7,849.3,29.3,847,24.9,847z M31.7,853.4v0.3c0,2.7-1.2,4.7-3.5,6.5s-4.2,2.5-10,2.5c0,0,0,0-1.2,0c-0.7,0-1.4,0.6-1.6,1.2
	c0,0-0.2,0.8-1.2,5.6c-0.1,0.4-0.5,0.8-0.9,1.1c-1.1,4.8-1.1,5-1.1,5c-0.2,0.7,0.2,1.4,0.9,1.4H17c0.7,0,1.4-0.8,1.6-1.4
	c0.9-4.8,1.2-5.6,1.2-5.6c0.2-0.7,0.9-1.2,1.6-1.2h1.2c5.7,0,7.6-0.9,10-2.6c2.3-1.8,3.5-3.8,3.5-6.5c0-1.3,0-2.6-0.5-3.5
	C35.1,855.6,34.2,854.1,31.7,853.4z"/>
<path id="Persona" class="st0" d="M37.8,902.9L37.8,902.9l-0.2,0.2c-0.6,0.7-8.9,10.4-9.5,11.1c-0.1,0.1-0.5,0.6-0.6,0.6H7.2
	c-0.6,0-1.2-0.6-1.2-1.2v-20.7c0-1.2,1.2-1.8,1.8-1.8h19.7C27.9,891.5,37.6,902.7,37.8,902.9L37.8,902.9z M19.1,895
	c-1.6,0-2.7,1.3-3,2.7c-0.1,0.4-0.1,0.8-0.3,1.2s-0.1,0.8,0,1.2c0.2,0.4,0.4,0.6,0.5,1c0.2,0.4,0.4,0.8,0.7,1.2
	c0.3,0.3,0.5,0.4,0.5,0.9c0,0.4,0.1,0.7-0.3,0.9c-0.9,0.4-1.9,0.4-2.7,0.9c-1.4,0.8-1.7,2.9-1.7,4.4c0,0.6,1.4,0.6,1.8,0.6h9.2
	c0.5,0,1.8-0.1,1.8-0.6c0-0.4-0.4-2.1-0.6-2.6c-0.3-0.7-0.6-1.4-1.3-1.7c-0.8-0.4-1.7-0.5-2.6-0.8c-0.5-0.2-0.5-0.3-0.5-0.8
	c0-0.6,0.4-0.8,0.7-1.2c0.3-0.4,0.5-0.9,0.6-1.3c0.1-0.2,0.3-0.4,0.4-0.6c0.1-0.3,0.2-0.6,0.1-0.9c0-0.2-0.1-0.4-0.2-0.6
	c-0.1-0.2-0.1-0.5-0.1-0.7c-0.1-0.6-0.3-1.1-0.7-1.6C21,895.5,20.1,895,19.1,895C17.9,895.1,20.1,895,19.1,895L19.1,895z"/>
<path id="Pinterest" class="st0" d="M22,930c-8.7,0-13,6.1-13,11.2c0,3.1,1.2,5.8,3.7,6.9c0.4,0.2,0.8,0,0.9-0.5
	c0.1-0.3,0.3-1.1,0.4-1.4c0.1-0.5,0.1-0.6-0.3-1c-0.7-0.9-1.2-2-1.2-3.5c0-4.5,3.4-8.6,9-8.6c4.9,0,7.6,2.9,7.6,6.9
	c0,5.2-2.3,9.6-5.8,9.6c-1.9,0-3.3-1.6-2.9-3.5c0.5-2.3,1.6-4.7,1.6-6.4c0-1.5-0.8-2.7-2.5-2.7c-2,0-3.5,2-3.5,4.7
	c0,1.7,0.6,2.8,0.6,2.8s-2,8.3-2.3,9.8c-0.7,2.9-0.1,6.5-0.1,6.8c0,0.2,0.3,0.3,0.4,0.1c0.2-0.2,2.5-3.1,3.3-5.9
	c0.2-0.8,1.3-4.9,1.3-4.9c0.6,1.2,2.5,2.2,4.5,2.2c5.9,0,9.8-5.3,9.8-12.3C33.6,935,29,930,22,930"/>
<path id="QQ" class="st0" d="M33.7,990.7c-0.5-1.5-1.4-3.1-2.2-3.9c0.3-0.7,0.4-1.5,0.3-2.2c-0.2-1.2-0.9-2-1.2-2.2h-0.1
	c-0.1-2.5-1.9-9.3-9.5-9.3c-7.4,0-8.7,7.2-8.8,9.7c0,0,0,0-0.1,0c-0.2,0-0.6,0-0.8,0.5c-0.2,0.4-0.1,0.9,0,1.1
	c-0.2,0.1-0.6,0.5-0.5,1.1c0,0.5,0.1,0.9,0.3,1.3c-0.4,0.4-1.7,2-2.5,3.7c-0.9,2.1-0.7,5.4,0.2,5.4s2.2-2.1,2.2-2.1s0.5,1.7,1.9,3.3
	c-0.3,0.1-1.9,0.8-2.1,2.2c-0.1,0.5,0.1,1.1,0.4,1.5c0.7,0.8,2.1,1.2,4.1,1.2h0.3c3.4-0.1,4.3-1.3,4.4-1.4h-0.3
	c0.4,0,0.8,0.1,1.2,0.1h1c0.2,0.3,1.3,1.3,4.3,1.4h0.3c2,0,3.4-0.4,4.1-1.2c0.4-0.4,0.5-0.9,0.4-1.5c-0.2-1.3-1.7-2.1-2.2-2.3
	c1.5-1.7,2-3.4,2-3.4s1,2.1,2,2.1C34.2,995.8,34.2,992.3,33.7,990.7L33.7,990.7z M23.6,977.2c0.9,0,1.6,1.2,1.6,2.7
	s-0.7,2.7-1.6,2.7s-1.6-1.2-1.6-2.7S22.7,977.2,23.6,977.2L23.6,977.2z M18.7,977.2c0.9,0,1.6,1.2,1.6,2.7s-0.7,2.7-1.6,2.7
	s-1.6-1.2-1.6-2.7S17.8,977.2,18.7,977.2L18.7,977.2z M21.4,983.1c3.2,0,6.8,1,6.3,1.7c-0.5,0.8-1.5,1.2-1.8,1.1
	c-0.3-0.1,0.3-0.9,0.3-0.9s-2,2-4.7,2s-4.8-2-4.8-2s0.9,1,0.3,0.9s-1.5-0.8-1.8-1.1C14.5,984.3,18.2,983.1,21.4,983.1L21.4,983.1z
	 M15.7,1001.7c-2.6,0.1-3.7-0.6-4.2-1.1c-0.3-0.3-0.4-0.7-0.4-1.2l0.1-0.1c0.1,0,0.1-0.1,0.2-0.1c0.1,0,0.2-0.1,0.2-0.1
	c0.2-0.1,0.3-0.1,0.5-0.2c0.1,0,0.2-0.1,0.2-0.1s-0.4,0-0.7,0.1c-0.1,0-0.2,0.1-0.3,0.1c0,0-0.1,0-0.1,0.1c0.3-1,1.6-1.6,1.9-1.7
	c1.3,1.5,3.4,2.9,6.6,3.2C19.6,1000.7,18.7,1001.6,15.7,1001.7L15.7,1001.7z M30.9,999.1c0,0-0.1,0-0.1-0.1c-0.1,0-0.2-0.1-0.3-0.1
	c-0.4-0.1-0.7-0.1-0.7-0.1s0.1,0,0.2,0.1c0.1,0,0.3,0.1,0.5,0.2c0.1,0,0.2,0.1,0.2,0.1c0.1,0,0.1,0.1,0.2,0.1c0,0.1,0.1,0.1,0.1,0.1
	c0,0.5-0.1,0.9-0.4,1.2c-0.5,0.5-1.6,1.2-4.2,1.1c-3.1-0.1-4-1.1-4.1-1.1c3.1-0.3,5.2-1.8,6.5-3.3C29.1,997.4,30.5,998,30.9,999.1
	L30.9,999.1z M21,1000.1c-6.5,0-8.4-5.9-8.4-8c0-1.6,0.3-2.6,0.4-3c0.3,0.3,0.7,0.5,1.2,0.8c-0.1,0.6-0.4,3.5,0,4.4
	c0.5,0.9,1.6,1.5,2.9,1.5l0,0c0.3,0,0.6-0.1,0.8-0.4c0.5-0.6,0.7-1.9,0.5-4c1,0.2,2.1,0.4,3.3,0.4c1.9,0,4.6-0.5,7.4-2.5
	c0.2,0.2,0.5,0.9,0.5,2.6C29.7,994.3,27.5,1000.1,21,1000.1L21,1000.1z M14.5,990c0.7,0.4,1.5,0.7,2.4,1l0.1,2.3l0.1-2.2
	c0.4,0.1,0.7,0.2,1.1,0.3c0.2,2.1,0.1,3.3-0.4,3.8c-0.2,0.2-0.4,0.3-0.7,0.3c-1.2,0-2.2-0.6-2.6-1.4C14.1,993.5,14.3,991.1,14.5,990
	L14.5,990z M30.2,988.2c-3.2,2.8-6.3,3.4-8.4,3.4c-4.1,0-7.4-1.6-9-3c-1-0.9-1.5-1.9-1.6-3.2c0-0.5,0.2-0.7,0.3-0.8
	c0.1,0.3,0.3,0.9,0.6,1.4c0.1,0.2,0.2,0.4,0.3,0.5c0.1,0.2,0.2,0.3,0.3,0.4c0.1,0.1,0.2,0.2,0.3,0.3s0.1,0.1,0.1,0.1s0,0-0.1-0.1
	s-0.1-0.2-0.2-0.3c-0.1-0.1-0.2-0.3-0.3-0.5s-0.2-0.4-0.3-0.6c-0.2-0.4-0.3-0.8-0.4-1.1c0-0.1-0.1-0.3-0.1-0.4l0,0l-0.1-0.1l0,0l0,0
	c0,0-0.2-0.6,0-1c0.1-0.3,0.4-0.3,0.5-0.3c0.2,1.3,2.6,5.2,9.5,5.2c6,0,8.2-3.9,8.8-5.2c0,0.2-0.1,0.5-0.2,0.8
	c0,0.2-0.1,0.4-0.2,0.6s-0.1,0.4-0.3,0.6c0,0.1-0.1,0.2-0.1,0.3c-0.1,0.1-0.1,0.2-0.2,0.3c-0.1,0.2-0.3,0.4-0.4,0.6
	c-0.1,0.2-0.3,0.4-0.4,0.6c-0.2,0.2-0.3,0.4-0.5,0.5c-0.2,0.2-0.3,0.3-0.5,0.5s-0.3,0.3-0.5,0.4c-0.1,0.1-0.3,0.2-0.4,0.3
	s-0.2,0.1-0.3,0.2c-0.2,0.1-0.3,0.2-0.3,0.2s0.1-0.1,0.3-0.2c0.1-0.1,0.2-0.1,0.3-0.2c0.1-0.1,0.3-0.2,0.4-0.3s0.3-0.2,0.5-0.4
	c0.2-0.1,0.3-0.3,0.5-0.4c0.2-0.2,0.3-0.3,0.5-0.5s0.3-0.4,0.5-0.6c0.1-0.2,0.3-0.4,0.4-0.6c0.1-0.1,0.1-0.2,0.2-0.3
	s0.1-0.2,0.2-0.3c0.1-0.2,0.2-0.4,0.3-0.6c0.1-0.2,0.1-0.4,0.2-0.6c0.1-0.4,0.2-0.7,0.2-0.9c0,0,0,0,0-0.1c0.3,0.3,0.6,0.9,0.8,1.7
	C31.7,985.7,31.1,987.4,30.2,988.2z M23.2,979.6c0.3,0,0.6,0.3,0.7,0.8c0-0.1,0.1-0.3,0.1-0.5c0-0.7-0.3-1.2-0.7-1.2
	c-0.4,0-0.7,0.6-0.7,1.2c0,0.2,0,0.3,0.1,0.5C22.7,979.9,22.9,979.6,23.2,979.6z M19.5,981.1c0.4,0,0.7-0.6,0.7-1.2
	c0-0.7-0.3-1.2-0.7-1.2s-0.7,0.6-0.7,1.2C18.7,980.5,19.1,981.1,19.5,981.1z M19.5,979.6c0.1,0,0.2,0.1,0.2,0.2
	c0,0.1-0.1,0.2-0.2,0.2s-0.2-0.1-0.2-0.2C19.2,979.7,19.3,979.6,19.5,979.6L19.5,979.6z"/>
<path id="RenRen" class="st0" d="M11.1,1020.2v-0.2H11c-0.1,0-0.2,0-0.3,0.1c-2.8,0.7-4.9,2.3-6.4,4.8c-2,3.5-1.7,8.1,0.8,11.3
	c0.2,0.2,0.3,0.3,0.6,0.1c3.3-1.9,5.4-4.9,5.4-8.7C11,1025.1,11.1,1022.6,11.1,1020.2z M19.7,1024.9c0.2-0.4,0.5-0.8,0.8-1.2
	c-0.7-1-1.6-1.8-2.7-2.5c-1-0.6-2.1-1.1-3.3-1.2v0.3v6c0,0.9,0.1,1.9,0.3,2.8c0.7,3.1,2.4,5.6,5.2,7.2c0.2,0.1,0.3,0.2,0.5-0.1
	c0,0,0-0.1,0.1-0.1C18.1,1032.9,17.7,1028.4,19.7,1024.9z M12.7,1032.5c-0.7,2.8-2.4,4.7-4.6,6.3c3,1.8,7,1.5,9.3,0
	C15.2,1037.2,13.5,1035.3,12.7,1032.5z M26.6,1020.2v-0.2h-0.1c-0.1,0-0.2,0-0.3,0.1c-2.3,0.6-4.2,1.8-5.6,3.6
	c0.8,1.1,1.4,2.3,1.7,3.7c0.8,3.2,0.2,6.1-1.7,8.8l0,0c0.2,0.2,0.3,0.3,0.6,0.1c3.3-1.9,5.1-4.9,5.4-8.7
	C26.7,1025.1,26.5,1022.6,26.6,1020.2z M37.7,1027.4c-0.6-2.7-2.2-4.7-4.5-6.1c-1-0.6-2.1-1.1-3.3-1.2v0.3v6c0,0.9,0.1,1.9,0.3,2.8
	c0.7,3.1,2.4,5.6,5.2,7.2c0.2,0.1,0.3,0.2,0.5-0.1C37.9,1033.6,38.4,1030.6,37.7,1027.4z M28.2,1032.5c-0.7,2.8-2.4,4.7-4.6,6.3
	c3,1.8,7,1.5,9.3,0C30.6,1037.2,28.9,1035.3,28.2,1032.5z"/>
<path id="Salesforce" class="st0" d="M30.2,1059c-2.3,0-4.3,1.4-5.2,3.4c-1.5-1-3.3-1.6-5.3-1.6c-5.3,0-9.6,4.4-9.6,9.8
	c0,0.4,0,0.8,0.1,1.2c-2.4,0.7-4.2,3-4.2,5.8c0,3.3,2.6,6,5.9,6H30c3.2,0,5.9-2.7,5.9-6v-12.7C35.8,1061.6,33.3,1059,30.2,1059
	L30.2,1059z M17.5,1072.7l0.2-0.1c0.1,0,0.1,0,0.2,0.1l0.5,0.9c0.4,0.7,0.6,1.1,1.6,1.1c0.6,0,1.4-0.4,1.4-1.3
	c0-0.8-0.4-1.3-1.8-1.7c-1.1-0.3-2.1-0.9-2.1-2.3c0-1.3,1.2-2.3,2.5-2.3c0.9,0,1.3,0.2,1.7,0.4c0.3,0.1,0.3,0.2,0.3,0.3l0.3,1.3
	c0,0.1,0,0.1-0.1,0.2l-0.2,0.1c-0.1,0-0.1,0-0.2-0.1l-0.6-0.9c-0.2-0.4-0.6-0.7-1.3-0.7c-0.7,0-1.4,0.4-1.4,1.2
	c0,1.1,0.8,1.3,1.7,1.5c1.3,0.4,2.1,0.9,2.2,2.4c0,1.5-1.2,2.4-2.7,2.4c-0.9,0-1.6-0.4-1.8-0.5c-0.1-0.1-0.1-0.2-0.1-0.3
	L17.5,1072.7C17.4,1072.7,17.5,1072.7,17.5,1072.7L17.5,1072.7z M32.1,1063.5c-1,0-0.9-1.7-2.1-1.7c-1.4,0-2.1,1.7-3,5.1h1.9
	l-0.1,0.6h-2l-2.5,8.4c-1.2,4.2-2.5,6.8-5.6,6.8c-1.4,0-2.4-0.7-2.4-1.6c0-0.4,0.3-0.8,0.8-0.8s0.7,0.3,0.7,0.8v0.5
	c0,0.3,0.4,0.6,1.1,0.6c1.9,0,2.8-2.3,4.1-6.6l2.4-8.2h-2.1l0.1-0.6h2.2c1.1-3.7,2.7-5.6,4.7-5.6c1.6,0,2.5,1,2.5,1.7
	C32.6,1063.3,32.4,1063.5,32.1,1063.5L32.1,1063.5z"/>
<path id="Weibo" class="st0" d="M31.5,1106.7L31.5,1106.7L31.5,1106.7L31.5,1106.7L31.5,1106.7c-0.1-0.2-0.5-0.6-0.8-0.8
	c-1-1-2.8-0.8-3.2-0.8c-0.3,0.1-0.9,0.4-0.7,1.2c0.1,0.8,0.8,0.7,1.5,0.6c0.6,0,1.1,0.3,1.2,0.4c0,0,0.2,0.2,0.3,0.3l0,0
	c0,0,0,0,0,0.1l0,0c0.1,0.2,0.4,0.7,0.3,1.3s-0.2,1.3,0.5,1.5c0.8,0.2,1.1-0.3,1.2-0.6C32.1,1109.6,32.4,1107.8,31.5,1106.7z
	 M34.4,1104c0,0-0.5-0.6-0.7-0.9l-0.1-0.1c-3.3-2.9-6.7-1.8-7-1.8s-0.8,0.3-0.7,1.3c0,0.9,1.1,1,1.1,1c2.4-0.7,4.2,0.4,5.2,1.2
	c0,0,2.7,2.5,1.4,6.1c0,0,0,1.1,0.9,1.2s1.2-0.4,1.3-0.7C35.7,1111,37,1107.6,34.4,1104z M29.8,1112.9c0,0-1.4-0.5-1.5-0.7
	s0-0.5,0.1-0.8c0.2-0.3,0.3-1.2,0.2-1.6c0-0.4-0.1-1.2-1.3-1.8c-1.2-0.6-3.9,0.1-4.2,0.2s-1.7,0.6-1.7,0.6s-0.5,0.3-0.3-0.5
	s0.9-4-1.9-4c-2.9,0-6.4,2.9-7.7,4.1c-1.2,1.3-5.4,5.5-4.4,10.2c0,0,0.5,1.4,1.2,2.2c0.8,0.8,1.8,2,4.2,2.9s4.7,1.2,7.2,1.2
	s6.2-0.8,8.8-2.7c2.6-1.9,3.7-3.9,3.8-5.3C32.4,1115.5,31.9,1113.8,29.8,1112.9z M19.3,1123.2c-4.8,0.7-9-1.4-9.5-4.6
	c-0.4-3.2,3.1-6.4,7.9-7c4.8-0.7,9,1.4,9.5,4.6C27.6,1119.4,24,1122.5,19.3,1123.2z M22.6,1116.9c-0.4-2.2-2.8-3.5-5.3-3
	s-4.2,2.7-3.7,4.9c0.4,2.2,2.8,3.5,5.3,3S23,1119.1,22.6,1116.9z M16.5,1119c-0.9,0-1.6-0.7-1.6-1.6s0.7-1.6,1.6-1.6
	c0.9,0,1.6,0.7,1.6,1.6S17.4,1119,16.5,1119L16.5,1119z M20.3,1119.2c-0.4,0-0.8-0.3-0.8-0.8c0-0.4,0.3-0.8,0.8-0.8s0.8,0.3,0.8,0.8
	C21,1118.8,20.7,1119.2,20.3,1119.2L20.3,1119.2z"/>
<path id="StackExchange" class="st0" d="M9,1155.7h24v5H9V1155.7z M9,1149.2h24v5H9V1149.2z M28.8,1142H12.5
	c-1.7,0.3-3.4,2.1-3.4,4.3l-0.1,1.4h24v-1.4C33,1144.2,31.3,1142.3,28.8,1142z M9.1,1162.2v1.7c0,2.2,2.1,4.1,4.1,4.1h9.9v5l5-5.1
	h1.1c2.1,0,3.8-1.3,3.8-3.5v-2.2H9.1z"/>
<path id="Steam" class="st0" d="M36.8,1194.1c0,1.5-1.2,2.8-2.6,2.8c-1.4,0-2.6-1.2-2.6-2.8c0-1.5,1.2-2.8,2.6-2.8
	C35.6,1191.4,36.8,1192.6,36.8,1194.1L36.8,1194.1z M34.1,1189c-2.7,0-4.9,2.3-4.9,5.1l-3,4.6h-0.4c-0.7,0-1.3,0.2-1.9,0.5
	l-13.8-5.8c-0.4-1.7-1.8-3-3.6-3c-2,0-3.6,1.7-3.6,3.8c0,2.1,1.6,3.8,3.6,3.8c0.7,0,1.3-0.2,1.9-0.5l13.8,5.8c0.4,1.7,1.8,3,3.6,3
	c1.9,0,3.4-1.5,3.6-3.5l4.7-3.6c2.7,0,4.9-2.3,4.9-5.1C39,1191.3,36.8,1189,34.1,1189L34.1,1189z M34.1,1190.7
	c1.8,0,3.3,1.5,3.3,3.4s-1.5,3.4-3.3,3.4s-3.3-1.5-3.3-3.4C30.9,1192.2,32.3,1190.7,34.1,1190.7L34.1,1190.7z M6.6,1191.4
	c1,0,1.9,0.6,2.4,1.5l-1.3-0.6l0,0c-1.1-0.4-2.3,0.1-2.7,1.3c-0.4,1.1,0.1,2.4,1.1,2.9l0,0l1.1,0.5c-0.2,0-0.4,0.1-0.6,0.1
	c-1.5,0-2.7-1.3-2.7-2.8C4,1192.6,5.2,1191.4,6.6,1191.4L6.6,1191.4z M25.8,1199.7c1.5,0,2.7,1.3,2.7,2.8s-1.2,2.8-2.7,2.8
	c-1,0-1.9-0.6-2.4-1.5c0.4,0.2,0.9,0.4,1.3,0.6c1.1,0.5,2.3-0.1,2.8-1.2s-0.1-2.5-1.2-2.9l-1.1-0.5
	C25.4,1199.7,25.6,1199.7,25.8,1199.7L25.8,1199.7z"/>
<path id="Verisign" class="st0" d="M6,1227h10.4l10.1,18.7l-5,9.3L6,1227z M21.3,1235.7h10.4l5.3-8.7H26.5L21.3,1235.7z"/>
<path id="Vkontakte" class="st0" d="M19.7,1333.4h2c0,0,0.6,0.1,0.9-0.3c0.3-0.3,0.3-0.8,0.3-0.8s0-2.6,1.2-2.9
	c1.2-0.4,2.9,2.5,4.6,3.6c1.3,0.8,2.3,0.7,2.3,0.7l4.5-0.1c0,0,2.4-0.1,1.3-1.9c-0.1-0.1-0.7-1.3-3.4-3.7c-2.9-2.5-2.5-2.1,1-6.5
	c2.1-2.6,2.9-4.3,2.7-5c-0.1-0.5-2-0.4-2-0.4h-5c-0.9,0-1,0.6-1,0.6s-0.8,2.1-1.9,3.8c-2.3,3.7-3.2,3.9-3.6,3.6
	c-0.6-0.3-0.4-2-0.4-3.3c0-5.1-0.5-5.9-3.8-5.9c-1.8,0-3.4,0.3-4.3,0.7c-0.6,0.3-1,0.9-0.8,0.9c0.3,0,1.1,0.2,1.5,0.7
	c0.5,0.7,0.5,2.2,0.5,2.2s0.3,4.2-0.7,4.7c-0.7,0.4-1.6-0.4-3.7-3.7c-1-1.7-1.8-3.6-1.8-3.6s-0.2-0.4-0.4-0.5c-0.3-0.2-1-0.2-1-0.2
	H4.4c0,0-1-0.1-1.3,0.2c-0.2,0.3,0,0.8,0,0.8s3.8,8.3,8.1,12.6C15.2,1333.8,19.7,1333.4,19.7,1333.4"/>
<path id="Wordpress" class="st0" d="M20.5,1348c-9.1,0-16.5,7.4-16.5,16.5s7.4,16.5,16.5,16.5s16.5-7.4,16.5-16.5
	C36.9,1355.4,29.5,1348,20.5,1348L20.5,1348z M5.7,1364.5c0-2.1,0.5-4.2,1.3-6l7.1,19.3C9.1,1375.4,5.7,1370.3,5.7,1364.5
	L5.7,1364.5z M20.5,1379.3c-1.5,0-2.9-0.2-4.2-0.6l4.4-12.9l4.5,12.5c0,0.1,0.1,0.1,0.1,0.2C23.8,1379,22.2,1379.3,20.5,1379.3
	L20.5,1379.3z M22.5,1357.5c0.9,0,1.7-0.1,1.7-0.1c0.8-0.1,0.7-1.3-0.1-1.2c0,0-2.4,0.2-3.9,0.2s-3.9-0.2-3.9-0.2
	c-0.8,0-0.9,1.2-0.1,1.2c0,0,0.8,0.1,1.6,0.1l2.3,6.3l-3.2,9.7l-5.4-16c0.9,0,1.7-0.1,1.7-0.1c0.8-0.1,0.7-1.3-0.1-1.2
	c0,0-2.4,0.2-3.9,0.2h-1c2.6-4,7.2-6.7,12.4-6.7c3.9,0,7.4,1.5,10,3.9h-0.2c-1.5,0-2.5,1.3-2.5,2.6c0,1.2,0.7,2.3,1.5,3.5
	c0.6,1,1.2,2.3,1.2,4.1c0,1.3-0.5,2.7-1.1,4.8l-1.5,4.9L22.5,1357.5L22.5,1357.5z M33.4,1357.4c1.2,2.1,1.8,4.5,1.8,7.1
	c0,5.5-3,10.2-7.4,12.8l4.5-13.1c0.8-2.1,1.1-3.8,1.1-5.3C33.5,1358.3,33.5,1357.8,33.4,1357.4L33.4,1357.4z"/>
<path id="Mail.ru" class="st0" d="M20.9,1392c-8.7,0-15.9,7-15.9,15.7c0,8.6,7.1,15.7,15.9,15.7c2.3,0,4.6-0.5,6.7-1.5
	c0.7-0.3,1.1-1.3,0.8-2c-0.3-0.8-1.2-1.1-2-0.8c-1.7,0.8-3.6,1.2-5.5,1.2c-7.1,0-12.9-5.7-12.9-12.6s5.8-12.6,12.9-12.6
	s12.9,5.7,12.9,12.6c0,2.2-0.4,6.2-2.9,8.1c-0.2,0.1-0.4,0.2-0.5,0.2c-0.2-0.1-0.6-0.7-0.6-1.8V1400c0-0.9-0.7-1.5-1.5-1.5
	s-1.5,0.7-1.5,1.5v0.6c-1.7-1.6-3.9-2.6-6.3-2.6c-5.1,0-9.2,4.3-9.2,9.6c0,5.3,4.1,9.6,9.2,9.6c2.4,0,4.7-1,6.3-2.6
	c0.2,1.8,1,3.3,2.2,3.9c1.1,0.6,2.4,0.5,3.6-0.4c2.7-2,4.2-5.7,4.2-10.6C36.7,1399,29.6,1392,20.9,1392L20.9,1392z M20.5,1414.2
	c-3.5,0-6.3-2.9-6.3-6.6c0-3.6,2.8-6.6,6.3-6.6s6.3,2.9,6.3,6.6C26.7,1411.3,23.9,1414.2,20.5,1414.2L20.5,1414.2z"/>
<path id="Xing" class="st0" d="M37,1431h-7.5l-12,21l8.2,15h7.5l-8.2-15L37,1431z M6,1455.9h6.7l6.3-10.8l-4.2-7.7H8l4.2,7.7
	L6,1455.9z"/>
<path id="delicious" class="st0" d="M21.5,1476H6v31h31v-31H21.5L21.5,1476z M35.1,1505.1H21.5v-13.6H7.9v-13.6h13.6v13.6h13.6
	V1505.1L35.1,1505.1z"/>
<path id="digg" class="st0" d="M10.1,1523v4.7H5v11.3h8.3v-16H10.1L10.1,1523z M8.2,1530.3h1.9v6H8.2V1530.3z M14.6,1527.7h3.2v11.3
	h-3.2C14.6,1539,14.6,1527.7,14.6,1527.7z M14.6,1523h3.2v3.3h-3.2C14.6,1526.3,14.6,1523,14.6,1523z M19.1,1527.7v11.3h5.1v1.3
	h-5.1v2.7h8.3v-15.3H19.1z M22.3,1530.3h1.9v6h-1.9V1530.3z M28.7,1527.7v11.3h5.1v1.3h-5.1v2.7H37v-15.3H28.7z M31.9,1530.3h1.9v6
	h-1.9V1530.3z"/>
<path id="mail" class="st0" d="M24.9,1576.7l-1.2,1.3c-0.5,0.5-1.2,0.9-2,0.9h-2.4c-0.7,0-1.4-0.3-2-0.8l-1.2-1.3L5,1586h31
	L24.9,1576.7z M5,1563l13.6,12.1c0.5,0.5,1.2,0.8,2,0.8l0,0c0.7,0,1.4-0.3,2-0.9l13.4-12H5L5,1563z M26.9,1574.7L36,1586v-23
	L26.9,1574.7z M14.2,1574.6L5,1563v23L14.2,1574.6z"/>
<path id="googlebookmark" class="st0" d="M32,1634l-11.5-5.4L9,1634v-30.4c0-2,1.6-3.6,3.5-3.6h15.9c1.9,0,3.5,1.6,3.5,3.6v30.4H32z
	 M28.7,1611.9h-7.9v3.1h4.5c-0.7,1.6-2.4,2.9-4.4,2.9c-2.6,0-4.8-2.2-4.8-4.9s2.1-4.9,4.8-4.9c1.2,0,2.2,0.4,3.1,1.1l2.2-2.4
	c-1.4-1.3-3.3-2-5.3-2c-4.4,0-8,3.6-8,8.1s3.6,8.1,8,8.1s8-3.6,8-8C28.9,1612.6,28.9,1612.4,28.7,1611.9L28.7,1611.9z"/>
<path id="print" class="st0" d="M5,1653.5v12h4.2v-7.1c0-0.6,0.8-1.4,1.4-1.4h20.9c0.6,0,1.4,0.8,1.4,1.4v7.1h4.2v-12H5z
	 M10.6,1659.1v11.6l1.9,3.3h19v-14.9H10.6L10.6,1659.1z M13.3,1673.3l-2.1-2.8h2.1L13.3,1673.3L13.3,1673.3z M14,1670.5h10.4v1.4H14
	V1670.5z M28.7,1669H14l-0.1-1.4h14.7v1.4H28.7z M14,1664.1h14.6v1.4H14V1664.1z M14,1661.3h14.6v1.4H14V1661.3z M35.6,1650.7h-2.8
	v-3.8c0-1-1.1-1.9-2.1-1.9H11.3c-1,0-2.1,1.1-2.1,2.1v3.5H6.4c-0.6,0-1.1,0.5-1.1,1.2v0.2h31.5v-0.2
	C36.8,1651.2,36.3,1650.7,35.6,1650.7z"/>
<path id="tumblr" class="st0" d="M26.7,1751.1c-0.5,0.2-1.1,0.7-1.8,0.7c-1.6,0-2.6-0.5-2.4-3.3v-8.5H28v-3.9h-5.5v-7.2
	c0,0-3.5,0.4-3.6,0.4s-0.2,0.1-0.2,0.2c-0.2,2.1-0.1,6.1-4.7,7.4v3.1h3v9.2c0,3.1,1.1,7.2,6.7,7.1c1.9,0,3.8-1.2,4.2-2L26.7,1751.1"
	/>
<path id="Fill-1" class="st0" d="M36,1700.7c0-1.9-1.6-3.5-3.5-3.5c-0.9,0-1.7,0.4-2.4,0.9c-2.3-1.5-5.4-2.5-8.8-2.6l1.8-5.8l5,1.2
	c0,1.6,1.3,2.9,2.9,2.9s2.9-1.3,2.9-2.9s-1.3-2.9-2.9-2.9c-1.2,0-2.2,0.7-2.7,1.8l-5.5-1.3c-0.3-0.1-0.6,0.1-0.7,0.4l-2.1,6.6
	c-3.6,0.1-6.9,1-9.3,2.6c-0.6-0.5-1.4-0.9-2.3-0.9c-1.9,0-3.5,1.6-3.5,3.5c0,1.3,0.7,2.4,1.7,3c-0.1,0.3-0.1,0.7-0.1,1
	c0,5.1,6.2,9.3,13.9,9.3s13.9-4.2,13.9-9.3c0-0.3,0-0.7-0.1-1C35.3,1703.2,36,1702,36,1700.7L36,1700.7z M31,1689.2
	c1,0,1.7,0.8,1.7,1.7c0,1-0.8,1.7-1.7,1.7c-1,0-1.7-0.8-1.7-1.7C29.3,1689.9,30.1,1689.2,31,1689.2L31,1689.2z M6.2,1700.7
	c0-1.3,1.1-2.4,2.3-2.4c0.5,0,1,0.2,1.3,0.4c-1.3,1.1-2.3,2.3-2.9,3.7C6.5,1702.1,6.2,1701.4,6.2,1700.7L6.2,1700.7z M20.5,1709.5
	L20.5,1709.5c-2,0-3.4-0.4-4.2-1.2c-0.2-0.2-0.6-0.2-0.8,0s-0.2,0.6,0,0.8c1,1,2.7,1.6,5,1.6l0,0l0,0c2.3,0,3.9-0.5,5-1.5
	c0.2-0.2,0.2-0.6,0-0.8c-0.2-0.2-0.6-0.2-0.8,0C23.9,1709.1,22.5,1709.5,20.5,1709.5L20.5,1709.5z M33.9,1702.6
	c-0.5-1.4-1.5-2.7-2.8-3.7c0.4-0.3,0.9-0.5,1.4-0.5c1.3,0,2.3,1.1,2.3,2.4C34.8,1701.5,34.5,1702.1,33.9,1702.6z M15.8,1700.9
	c-1.2,0-2.2,1-2.2,2.2s1,2.1,2.2,2.1s2.1-1,2.1-2.1C18,1701.9,17,1700.9,15.8,1700.9z M25.2,1700.9c-1.2,0-2.2,1-2.2,2.2
	s1,2.1,2.2,2.1s2.1-1,2.1-2.1C27.3,1701.9,26.4,1700.9,25.2,1700.9z"/>
<path id="Shape" class="st0" d="M36.2,1782.9c0-6.8-6.8-12.3-15.2-12.3s-15.2,5.5-15.2,12.3c0,6.1,5.4,11.2,12.7,12.2
	c0.5,0.1,1.2,0.3,1.3,0.7c0.2,0.4,0.1,1,0,1.4c0,0-0.2,1.1-0.2,1.3c-0.1,0.4-0.3,1.5,1.3,0.8c1.6-0.7,8.8-5.2,11.9-8.8l0,0
	C35.1,1788,36.2,1785.6,36.2,1782.9z M15,1786.9h-3c-0.4,0-0.8-0.4-0.8-0.8v-6c0-0.4,0.4-0.8,0.8-0.8s0.8,0.4,0.8,0.8v5.2H15
	c0.4,0,0.8,0.4,0.8,0.8S15.5,1786.9,15,1786.9z M18.2,1786.1c0,0.4-0.4,0.8-0.8,0.8s-0.8-0.4-0.8-0.8v-6c0-0.4,0.4-0.8,0.8-0.8
	s0.8,0.4,0.8,0.8V1786.1z M25.4,1786.1c0,0.3-0.2,0.6-0.5,0.8h-0.3c-0.2,0-0.5-0.1-0.6-0.3l-3.1-4.2v3.7c0,0.4-0.4,0.8-0.8,0.8
	s-0.8-0.4-0.8-0.8v-6c0-0.3,0.2-0.6,0.5-0.8h0.3c0.2,0,0.5,0.1,0.6,0.3l3.1,4.2v-3.7c0-0.4,0.4-0.8,0.8-0.8s0.8,0.4,0.8,0.8V1786.1z
	 M30.3,1782.3c0.4,0,0.8,0.4,0.8,0.8s-0.4,0.8-0.8,0.8h-2.2v1.4h2.2c0.4,0,0.8,0.4,0.8,0.8s-0.4,0.8-0.8,0.8h-3
	c-0.4,0-0.8-0.4-0.8-0.8v-3l0,0l0,0v-3l0,0c0-0.4,0.4-0.8,0.8-0.8h3c0.4,0,0.8,0.4,0.8,0.8s-0.4,0.8-0.8,0.8h-2.2v1.4L30.3,1782.3
	L30.3,1782.3z"/>
<path id="Shape_1_" class="st0" d="M36.8,525.8c0,3,0,5-0.1,6.2c-0.1,2.7-0.9,4.8-2.4,6.3s-3.6,2.3-6.3,2.4
	c-1.1,0.1-3.2,0.1-6.2,0.1s-5,0-6.2-0.1c-2.7-0.1-4.8-0.9-6.3-2.4S7,534.7,6.9,532c-0.1-1.1-0.1-3.2-0.1-6.2s0-5,0.1-6.2
	c0.1-2.7,0.9-4.8,2.4-6.3s3.6-2.3,6.3-2.4c1.1-0.1,3.2-0.1,6.2-0.1s5,0,6.2,0.1c2.7,0.1,4.8,0.9,6.3,2.4s2.3,3.6,2.4,6.3
	C36.8,520.8,36.8,522.9,36.8,525.8z M23.3,513.5h-1.5h-1.5h-2.1c-0.5,0-1.1,0-1.9,0.1c-0.8,0-1.5,0.1-2,0.2c-0.6,0.1-1,0.2-1.4,0.4
	c-0.7,0.3-1.2,0.6-1.7,1.1s-0.9,1.1-1.1,1.7c-0.1,0.4-0.3,0.8-0.4,1.4c-0.1,0.6-0.2,1.2-0.2,2s-0.1,1.4-0.1,1.9v2.1v1.5v1.5v2.1
	c0,0.5,0,1.1,0.1,1.9c0,0.8,0.1,1.5,0.2,2c0.1,0.6,0.2,1,0.4,1.4c0.3,0.6,0.6,1.2,1.1,1.7s1.1,0.9,1.7,1.1c0.4,0.1,0.8,0.3,1.4,0.4
	c0.6,0.1,1.2,0.2,2,0.2c0.8,0,1.4,0.1,1.9,0.1h2.1h1.5h1.5h2.1c0.5,0,1.1,0,1.9-0.1c0.8,0,1.5-0.1,2-0.2c0.6-0.1,1-0.2,1.4-0.4
	c0.7-0.3,1.2-0.6,1.7-1.1c0.5-0.5,0.9-1.1,1.1-1.7c0.1-0.4,0.3-0.8,0.4-1.4c0.1-0.6,0.2-1.2,0.2-2s0.1-1.4,0.1-1.9v-2.1v-1.5v-1.5
	v-2.1c0-0.5,0-1.1-0.1-1.9c0-0.8-0.1-1.5-0.2-2c-0.1-0.6-0.2-1-0.4-1.4c-0.3-0.6-0.6-1.2-1.1-1.7s-1.1-0.9-1.7-1.1
	c-0.4-0.1-0.8-0.3-1.4-0.4c-0.6-0.1-1.2-0.2-2-0.2s-1.4-0.1-1.9-0.1H23.3z M27.3,520.4c1.5,1.5,2.2,3.3,2.2,5.4s-0.7,4-2.2,5.5
	s-3.3,2.2-5.4,2.2s-4-0.7-5.5-2.2s-2.2-3.3-2.2-5.5c0-2.1,0.7-4,2.2-5.4c1.5-1.5,3.3-2.2,5.5-2.2C23.9,518.2,25.8,518.9,27.3,520.4z
	 M25.3,529.4c1-1,1.5-2.2,1.5-3.5c0-1.4-0.5-2.6-1.5-3.5c-1-1-2.2-1.5-3.5-1.5c-1.4,0-2.6,0.5-3.5,1.5c-1,1-1.5,2.2-1.5,3.5
	c0,1.4,0.5,2.6,1.5,3.5c1,1,2.2,1.5,3.5,1.5C23.2,530.9,24.4,530.4,25.3,529.4z M31.1,516.6c0.4,0.4,0.5,0.8,0.5,1.3
	s-0.2,0.9-0.5,1.3c-0.4,0.4-0.8,0.5-1.3,0.5s-0.9-0.2-1.3-0.5c-0.4-0.4-0.5-0.8-0.5-1.3s0.2-0.9,0.5-1.3c0.4-0.4,0.8-0.5,1.3-0.5
	C30.3,516,30.7,516.2,31.1,516.6z"/>
<path id="Shape_2_" class="st0" d="M16.6,1285.8c0.2-0.6,0.4-1.2,0.6-1.8c1.5-4.5,3-9,4.5-13.5c0-0.2,0.1-0.3,0.2-0.4
	c0.2-0.5,0.6-0.8,1.1-0.8h4.4c0.5,0,0.8,0.5,0.6,1c-0.3,0.9-0.6,1.7-0.9,2.6c-2.4,6.5-4.7,13-7.1,19.6c0,0.1,0,0.1-0.1,0.2
	c-0.5,1.1-0.8,1.2-1.7,1.2h-3.5c-0.7,0-1.1-0.2-1.4-0.8c-0.3-0.7-0.6-1.5-0.9-2.2c-2.4-6.7-4.9-13.5-7.3-20.2c0-0.1-0.1-0.2-0.1-0.3
	c-0.1-0.5,0.2-0.9,0.7-0.9h4.4c0.6,0,1.1,0.3,1.3,0.9c0.5,1.4,0.9,2.7,1.4,4.1C14.1,1278.3,15.3,1282.1,16.6,1285.8
	C16.5,1285.6,16.5,1285.7,16.6,1285.8z"/>
<path id="Shape_3_" class="st0" d="M36.9,1290.2v2.4v0.3c-0.1,0.5-0.4,0.7-0.9,0.8h-1.4h-2.8h-0.5c-0.4-0.1-0.6-0.3-0.7-0.7v-0.5
	v-4.6c0-1,0.3-1.2,1.2-1.2h3.8h0.1c0.8,0,1.1,0.3,1.1,1.1C36.9,1288.6,36.9,1289.4,36.9,1290.2z"/>
<path id="Shape_4_" class="st0" d="M36.9,1279.4v2.4v0.5c-0.1,0.4-0.3,0.6-0.7,0.7h-0.8h-3.3h-0.5c-0.4,0-0.7-0.3-0.7-0.7v-0.6v-4.5
	c0-0.2,0-0.4,0.1-0.7s0.3-0.5,0.6-0.6h0.5h3.8c0.9,0,1.2,0.3,1.2,1.2C36.9,1277.9,36.9,1278.6,36.9,1279.4z"/>
<path class="st1" d="M28.4,113.5L28.4,113.5L28.4,113.5z"/>
<polygon class="st2" points="28.4,113.5 28.4,113.5 28.5,113.5 "/>
<g>
	<g>
		<path class="st0" d="M6.2,9.9V32h29.5V9.9H6.2L6.2,9.9L6.2,9.9L6.2,9.9z M33,29.3H9V12.7h24V29.3L33,29.3L33,29.3L33,29.3z"/>
		<circle class="st0" cx="24.5" cy="17.5" r="2.3"/>
		<path class="st0" d="M18.6,16.4l5.9,7.7l2.4-3.3l4.2,6.6H10.9L18.6,16.4z"/>
	</g>
</g>
</svg>
